<?xml version="1.0" encoding="UTF-8"?>
<svg id="_图层_1" data-name="图层 1" xmlns="http://www.w3.org/2000/svg" viewBox="0 0 71.29 67.24">
  <defs>
    <style>
      .cls-1 {
        fill: #91c3ce;
      }

      .cls-2 {
        fill: #e84e8f;
      }

      .cls-3 {
        fill: #e6214c;
      }

      .cls-4 {
        fill: #3b4c9f;
      }
    </style>
  </defs>
  <g id="_径向重复_" data-name="&amp;lt;径向重复&amp;gt;">
    <path class="cls-4" d="M40.56,59.45h0c-1.8.86-3.73,1.32-5.74,1.37-7.83.21-14.38-6-14.58-13.83-.15-5.61,3.03-10.79,8.09-13.21,1.8-.86,3.73-1.32,5.74-1.37,3.79-.1,7.4,1.28,10.16,3.89s4.33,6.14,4.43,9.94c.15,5.6-3.03,10.79-8.09,13.21M43.14,64.86c6.98-3.34,11.72-10.55,11.5-18.78-.3-11.16-9.58-19.96-20.74-19.67-2.93.08-5.69.77-8.17,1.96-6.98,3.34-11.72,10.55-11.5,18.78.3,11.16,9.58,19.96,20.74,19.67,2.93-.08,5.69-.77,8.17-1.96h0Z"/>
  </g>
  <g id="_径向重复_-2" data-name="&amp;lt;径向重复&amp;gt;">
    <path class="cls-3" d="M8.61,39.74h0c-.86-1.8-1.32-3.73-1.37-5.74-.21-7.83,6-14.38,13.83-14.58,5.61-.15,10.79,3.03,13.21,8.09.86,1.8,1.32,3.73,1.37,5.74.1,3.79-1.28,7.4-3.89,10.16s-6.14,4.33-9.94,4.43c-5.6.15-10.79-3.03-13.21-8.09M3.19,42.33c3.34,6.98,10.55,11.72,18.78,11.5,11.16-.3,19.96-9.58,19.67-20.74-.08-2.93-.77-5.69-1.96-8.17-3.34-6.98-10.55-11.72-18.78-11.5C9.74,13.71.94,23,1.23,34.15c.08,2.93.77,5.69,1.96,8.17h0Z"/>
  </g>
  <g id="_径向重复_-3" data-name="&amp;lt;径向重复&amp;gt;">
    <path class="cls-1" d="M28.32,7.79h0c1.8-.86,3.73-1.32,5.74-1.37,7.83-.21,14.38,6,14.58,13.83.15,5.61-3.03,10.79-8.09,13.21-1.8.86-3.73,1.32-5.74,1.37-3.79.1-7.4-1.28-10.16-3.89s-4.33-6.14-4.43-9.94c-.15-5.6,3.03-10.79,8.09-13.21M25.73,2.37c-6.98,3.34-11.72,10.55-11.5,18.78.3,11.16,9.58,19.96,20.74,19.67,2.93-.08,5.69-.77,8.17-1.96,6.98-3.34,11.72-10.55,11.5-18.78C54.35,8.92,45.06.12,33.9.41c-2.93.08-5.69.77-8.17,1.96h0Z"/>
  </g>
  <g id="_径向重复_-4" data-name="&amp;lt;径向重复&amp;gt;">
    <path class="cls-2" d="M62.68,27.5h0c.86,1.8,1.32,3.73,1.37,5.74.21,7.83-6,14.38-13.83,14.58-5.61.15-10.79-3.03-13.21-8.09-.86-1.8-1.32-3.73-1.37-5.74-.1-3.79,1.28-7.4,3.89-10.16s6.14-4.33,9.94-4.43c5.6-.15,10.79,3.03,13.21,8.09M68.09,24.91c-3.34-6.98-10.55-11.72-18.78-11.5-11.16.3-19.96,9.58-19.67,20.74.08,2.93.77,5.69,1.96,8.17,3.34,6.98,10.55,11.72,18.78,11.5,11.16-.3,19.96-9.58,19.67-20.74-.08-2.93-.77-5.69-1.96-8.17h0Z"/>
  </g>
</svg>