<?xml version="1.0" encoding="UTF-8"?>
<svg id="_图层_1" data-name="图层_1" xmlns="http://www.w3.org/2000/svg" version="1.1" viewBox="0 0 27.56 28.76">
  <!-- Generator: Adobe Illustrator 30.2.1, SVG Export Plug-In . SVG Version: 2.1.1 Build 1)  -->
  <defs>
    <style>
      .st0 {
        fill: #628fb4;
      }

      .st1 {
        fill: #aebce7;
      }

      .st2 {
        fill: #483f97;
      }

      .st3 {
        fill: #7ba6cb;
      }

      .st4 {
        fill: #418cc4;
      }

      .st5 {
        fill: #447bd2;
      }

      .st6 {
        fill: #5472a3;
      }

      .st7 {
        fill: #517dd1;
      }

      .st8 {
        fill: #b8ffff;
      }

      .st9 {
        fill: #3c6dba;
      }

      .st10 {
        fill: #42acd8;
      }

      .st11 {
        fill: #5e7de9;
      }

      .st12 {
        fill: #69adff;
      }

      .st13 {
        fill: #5f66ae;
      }

      .st14 {
        fill: #68acff;
      }

      .st15 {
        fill: #62a8ff;
      }

      .st16 {
        fill: #545c8d;
      }

      .st17 {
        fill: #3c357f;
      }

      .st18 {
        fill: #008acd;
      }

      .st19 {
        fill: #6599c7;
      }

      .st20 {
        fill: #008eca;
      }

      .st21 {
        fill: #5b75df;
      }

      .st22 {
        fill: #585aa3;
      }

      .st23 {
        fill: #08a;
      }

      .st24 {
        fill: #265ff2;
      }

      .st25 {
        fill: #0081d8;
      }

      .st26 {
        fill: #595a9d;
      }

      .st27 {
        fill: #5d66aa;
      }

      .st28 {
        fill: #c7d3e3;
      }
    </style>
  </defs>
  <polygon class="st7" points="10.35 6.21 13.81 8.09 13.84 5.34 10.35 6.21"/>
  <path class="st2" d="M9.99.66s.96.48,2.3,1.49c1.13.85,1.57,1.49,1.57,1.49l-.02,1.7L9.99.66Z"/>
  <polygon class="st3" points="6.19 4.94 9.99 .66 13.84 5.34 10.35 6.21 6.19 4.94"/>
  <polygon class="st8" points="5.93 8.08 10.38 6.23 6.19 4.94 5.93 8.08"/>
  <polygon class="st8" points="6.84 12.44 5.93 8.08 3.95 10.31 6.84 12.44"/>
  <polygon class="st8" points="5.65 16.32 10.36 17.49 6.84 12.44 5.65 16.32"/>
  <polygon class="st14" points="13.61 21.52 10.36 17.49 10.89 22.85 13.61 21.52"/>
  <path class="st17" d="M9.11,25.47s1.13,1,2.1,1.68c.98.68,2.3,1.61,2.3,1.61l-2.62-5.92-1.78,2.62Z"/>
  <polygon class="st27" points="5.73 22.15 10.89 22.85 9.11 25.47 5.73 22.15"/>
  <polygon class="st5" points="5.65 16.32 10.36 17.49 10.89 22.85 5.73 22.15 5.65 16.32"/>
  <path class="st15" d="M2.67,18.21l2.98-1.89.08,5.83s-1.09-1.28-1.71-2.03c-.62-.76-1.35-1.91-1.35-1.91Z"/>
  <path class="st11" d="M.94,14.6l4.7,1.72-2.98,1.89s-.85-1.39-1.08-1.87c-.23-.48-.65-1.74-.65-1.74Z"/>
  <path class="st13" d="M.16,6.26l3.79,4.05L.94,14.6S.14,11.81.05,10.49c-.16-2.34.11-4.24.11-4.24Z"/>
  <path class="st4" d="M3.45.97l2.74,3.98L.16,6.26s.48-2.02,1.33-3.22c.85-1.19,1.96-2.07,1.96-2.07Z"/>
  <path class="st20" d="M9.99.66l-3.8,4.28L3.45.97s.89-.6,2.49-.87c.93-.16,1.56-.1,2.4.04,1.02.17,1.65.52,1.65.52Z"/>
  <polygon class="st28" points=".16 6.26 6.19 4.94 5.92 8.1 3.95 10.31 .16 6.26"/>
  <polygon class="st10" points=".94 14.6 3.95 10.31 6.84 12.44 5.65 16.32 .94 14.6"/>
  <polygon class="st12" points="17.24 6.32 13.81 8.09 13.84 5.34 17.24 6.32"/>
  <path class="st26" d="M17.78.76s-.97.46-2.34,1.43c-1.15.82-1.58,1.44-1.58,1.44l-.02,1.7,3.94-4.58Z"/>
  <polygon class="st11" points="21.47 5.15 17.78 .76 13.84 5.34 17.24 6.32 21.47 5.15"/>
  <polygon class="st24" points="21.65 8.29 17.24 6.32 21.47 5.15 21.65 8.29"/>
  <polygon class="st17" points="20.62 12.62 21.65 8.29 23.56 10.57 20.62 12.62"/>
  <polygon class="st23" points="21.71 16.53 16.97 17.57 20.62 12.62 21.71 16.53"/>
  <polygon class="st25" points="13.61 21.52 16.97 17.57 16.29 22.92 13.61 21.52"/>
  <polygon class="st22" points="16.29 22.92 13.61 21.52 10.89 22.85 13.51 28.76 16.29 22.92"/>
  <path class="st0" d="M18,25.58s-1.16.97-2.15,1.63c-.99.66-2.34,1.55-2.34,1.55l2.78-5.85,1.71,2.67Z"/>
  <polygon class="st9" points="21.47 22.36 16.29 22.92 18 25.58 21.47 22.36"/>
  <polygon class="st18" points="21.71 16.53 16.97 17.57 16.29 22.92 21.47 22.36 21.71 16.53"/>
  <path class="st6" d="M24.64,18.5l-2.93-1.97-.23,5.83s1.12-1.25,1.76-1.99c.64-.74,1.4-1.87,1.4-1.87Z"/>
  <path class="st21" d="M26.46,14.94l-4.75,1.59,2.93,1.97s.88-1.37,1.13-1.84c.24-.47.69-1.72.69-1.72Z"/>
  <path class="st6" d="M27.46,6.62l-3.9,3.95,2.9,4.37s.87-2.77,1-4.08c.22-2.34,0-4.24,0-4.24Z"/>
  <path class="st2" d="M24.31,1.24l-2.85,3.9,5.99,1.47s-.42-2.04-1.24-3.25c-.82-1.21-1.9-2.12-1.9-2.12Z"/>
  <path class="st16" d="M17.78.76l3.68,4.38,2.85-3.9s-.66-.57-2.25-.88c-.93-.18-1.77-.2-2.62-.08-1.02.14-1.66.48-1.66.48Z"/>
  <polygon class="st1" points="17.24 6.32 13.81 8.09 10.38 6.23 5.93 8.08 6.84 12.44 10.36 17.49 13.61 21.52 16.97 17.57 20.62 12.62 21.65 8.29 17.24 6.32"/>
  <polygon class="st13" points="27.46 6.62 21.47 5.15 21.65 8.31 23.56 10.57 27.46 6.62"/>
  <polygon class="st19" points="26.46 14.94 23.56 10.57 20.62 12.62 21.71 16.53 26.46 14.94"/>
</svg>